# xmcd
#
# Track frame offsets: 
#        150
#        16692
#        29872
#        44034
#        64861
#        82733
#        97633
#        109756
#        124961
#        139032
#        152438
#        169638
#
# Disc length: 2404 seconds
#
# Revision: 0
# Processed by: cddbd v1.5.2PL0 Copyright (c) Steve Scherf et al.
# Submitted via: ExactAudioCopy v0.99pb1
#
DISCID=9009620c
DTITLE=Various Artist - Boogie Woogie Piano
DYEAR=2003
DGENRE=Boogie Woogie
TTITLE0=Clarence "Pinetop" Smith - Pinetop's Boogie Woogie
TTITLE1=Albert Ammons - Mile Of Mo Bird Rag
TTITLE2=Meade Lux Lewis - Twos And Fews
TTITLE3=Hercal Thomas - Bass Going Crazy
TTITLE4=Jimmy Yancey - Yancey's Mixture
TTITLE5=Albert Ammons - Boogie Woogie Blues
TTITLE6=Pete Johnson And Albert Ammons - Boogie Woogie Man
TTITLE7=Jimmy Yancey - Sweet Patootie
TTITLE8=Meade Lux Lewis - Tidal Boogie
TTITLE9=Clarence "Pinetop" Smith - Jump Steady Blues
TTITLE10=Jimmy Yancey - Midnight Stomp
TTITLE11=Pete Johnson And Albert Ammons - Cuttin' The Boogie
EXTD=
EXTT0=
EXTT1=
EXTT2=
EXTT3=
EXTT4=
EXTT5=
EXTT6=
EXTT7=
EXTT8=
EXTT9=
EXTT10=
EXTT11=
PLAYORDER=
